<?xml version="1.0" standalone="no"?><!DOCTYPE svg PUBLIC "-//W3C//DTD SVG 1.1//EN" "http://www.w3.org/Graphics/SVG/1.1/DTD/svg11.dtd"><svg t="1511944253346" class="icon" style="" viewBox="0 0 1024 1024" version="1.1" xmlns="http://www.w3.org/2000/svg" p-id="5228" xmlns:xlink="http://www.w3.org/1999/xlink" width="200" height="200"><defs><style type="text/css"></style></defs><path d="M478.1568 222.0032c0-12.6464 10.24-22.8864 22.8864-22.8864h227.2768c12.6464 0 22.8864 10.24 22.8864 22.8864v227.328c0 12.5952-10.24 22.8352-22.8864 22.8352h-227.328a22.8864 22.8864 0 0 1-22.8352-22.8864V222.0032z m-45.568 0v227.328a68.4032 68.4032 0 0 0 68.4544 68.352h227.2768a68.4032 68.4032 0 0 0 68.4032-68.4032V222.0032A68.4032 68.4032 0 0 0 728.32 153.6h-227.328A68.352 68.352 0 0 0 432.64 222.0032z m-284.672 455.1168c0-12.6464 10.24-22.8864 22.8864-22.8864h227.328c12.5952 0 22.8352 10.24 22.8352 22.8864v227.2768c0 12.6464-10.24 22.8864-22.8864 22.8864H170.8032a22.8864 22.8864 0 0 1-22.8864-22.8864v-227.328z m-45.5168 0v227.2768A68.4032 68.4032 0 0 0 170.8032 972.8h227.328a68.4032 68.4032 0 0 0 68.352-68.4032v-227.328a68.4032 68.4032 0 0 0-68.4032-68.352H170.8032A68.4032 68.4032 0 0 0 102.4 677.12z m500.6336 0c0-12.6464 10.24-22.8864 22.8864-22.8864h227.2768c12.6464 0 22.8864 10.24 22.8864 22.8864v227.2768c0 12.6464-10.24 22.8864-22.8864 22.8864h-227.328a22.8864 22.8864 0 0 1-22.8352-22.8864v-227.328z m-45.568 0v227.2768A68.4032 68.4032 0 0 0 625.9712 972.8h227.2768A68.4032 68.4032 0 0 0 921.6 904.3968v-227.328a68.4032 68.4032 0 0 0-68.4032-68.352h-227.328a68.4032 68.4032 0 0 0-68.352 68.4032z" fill="#ffffff" p-id="5229"></path></svg>