<?xml version="1.0" standalone="no"?><!DOCTYPE svg PUBLIC "-//W3C//DTD SVG 1.1//EN" "http://www.w3.org/Graphics/SVG/1.1/DTD/svg11.dtd"><svg t="1511945377982" class="icon" style="" viewBox="0 0 1024 1024" version="1.1" xmlns="http://www.w3.org/2000/svg" p-id="8404" xmlns:xlink="http://www.w3.org/1999/xlink" width="200" height="200"><defs><style type="text/css"></style></defs><path d="M74.752 898.56h875.008v32.768H74.752v-32.768zM136.704 791.04h99.328c34.816 0 62.976-28.16 62.976-62.464v-198.656c0-34.816-28.16-62.464-62.976-62.464H136.704c-34.816 0-62.464 28.16-62.464 62.464v198.656c0 34.304 28.16 62.464 62.464 62.464z m-30.208-261.12c0-16.896 13.312-30.208 30.208-30.208h99.328c16.896 0 30.208 13.312 30.208 30.208v198.656c0 16.896-13.312 30.208-30.208 30.208H136.704c-16.896 0-30.208-13.312-30.208-30.208v-198.656zM462.336 791.04h99.328c34.816 0 62.464-28.16 62.464-62.464V156.16c0-34.816-28.16-62.464-62.464-62.464H462.336c-34.816 0-62.464 28.16-62.464 62.464v572.416c-0.512 34.304 27.648 62.464 62.464 62.464zM432.128 155.648c0-16.896 13.312-30.208 30.208-30.208h99.328c16.896 0 30.208 13.312 30.208 30.208v572.416c0 16.896-13.312 30.208-30.208 30.208H462.336c-16.896 0-30.208-13.312-30.208-30.208V155.648zM787.456 791.04h99.328c34.816 0 62.464-28.16 62.464-62.464V325.632c0-34.816-28.16-62.464-62.464-62.464h-99.328c-34.816 0-62.464 28.16-62.464 62.464v402.432c0 34.816 28.16 62.976 62.464 62.976z m-30.208-465.408c0-16.896 13.312-30.208 30.208-30.208h99.328c16.896 0 30.208 13.312 30.208 30.208v402.432c0 16.896-13.312 30.208-30.208 30.208h-99.328c-16.896 0-30.208-13.312-30.208-30.208V325.632z" fill="#ffffff" p-id="8405"></path></svg>