<?xml version="1.0" standalone="no"?><!DOCTYPE svg PUBLIC "-//W3C//DTD SVG 1.1//EN" "http://www.w3.org/Graphics/SVG/1.1/DTD/svg11.dtd"><svg t="1511945248850" class="icon" style="" viewBox="0 0 1024 1024" version="1.1" xmlns="http://www.w3.org/2000/svg" p-id="6037" xmlns:xlink="http://www.w3.org/1999/xlink" width="200" height="200"><defs><style type="text/css"></style></defs><path d="M659.928 490.183l79.901-83.651c20.445 7.234 42.366 11.401 65.303 11.401 107.955 0 195.422-87.51 195.422-195.399 0-30.192-7.014-58.62-19.231-84.114l-86.694 86.738c-11.777 11.711-28.075 19.077-46.071 19.077-35.992 0-65.147-29.2-65.147-65.148 0-17.996 7.3-34.271 19.099-46.049l86.717-86.716c-25.495-12.174-53.944-19.253-84.093-19.253-107.933 0-195.421 87.511-195.421 195.465 0 22.937 4.146 44.836 11.423 65.28l-96.288 91.48c-11.026-3.044-22.561-4.786-34.58-4.786-27.348 0-52.666 8.447-73.639 22.826L200.563 173.795l33.654-33.654a21.633 21.633 0 0 0 6.352-15.35c0-8.027-4.367-14.887-10.806-18.658l0.044-0.11L99.533 30.002l-0.066 0.133c-3.22-1.896-6.881-3.065-10.895-3.065-5.999 0-11.424 2.448-15.349 6.374L29.775 76.845c-3.925 3.926-6.329 9.395-6.329 15.372 0 4.014 1.125 7.697 3.021 10.917l-0.088 0.044 75.999 130.251h0.11c3.75 6.396 10.652 10.807 18.68 10.807 5.977 0 11.402-2.47 15.35-6.374l33.346-33.324 215.601 223.077c-15.923 21.635-25.45 48.232-25.45 77.19 0 8.976 0.904 17.709 2.646 26.178L55.226 818.855c-19.628 19.673-31.78 46.799-31.78 76.771 0 59.986 48.585 108.571 108.572 108.571 29.95 0 57.098-12.151 76.749-31.824l273.272-291.6 285.226 285.292c23.599 23.555 56.173 38.132 92.143 38.132 71.94 0 130.296-58.311 130.296-130.252 0-36.014-14.578-68.565-38.154-92.164L659.928 490.183zM125.733 187.248l-53.415-91.48L92.1 75.986l91.48 53.349-57.847 57.913zM786.806 71.949l-22.672 22.716c-46.645 46.622-46.645 122.224 0 168.89 46.622 46.623 122.245 46.623 168.891 0l22.692-22.76c-9.063 75.271-72.866 133.714-150.585 133.714-19.65 0-38.352-3.859-55.554-10.74a122.51 122.51 0 0 1-13.365-5.955c-0.485-0.265-0.971-0.573-1.455-0.816-27.348-14.357-49.799-36.764-64.112-64.111a23.726 23.726 0 0 1-0.815-1.478c-2.205-4.301-4.19-8.755-5.999-13.343-6.837-17.202-10.718-35.904-10.718-55.532-0.001-77.762 58.443-141.543 133.692-150.585m-144.72 257.658a195.614 195.614 0 0 0 55.93 55.951l-69.449 73.22-46.137-46.093c-4.564-4.588-9.55-8.69-14.754-12.527l74.41-70.551zM178.068 941.675c-11.777 11.821-28.053 19.099-46.049 19.099-35.992 0-65.148-29.134-65.148-65.146 0-17.997 7.3-34.295 19.077-46.05l294.4-275.125c5.117 8.094 11.049 15.68 17.82 22.45l52.819 52.82-272.919 291.952z m681.339 19.098c-23.973 0-45.696-9.747-61.398-25.449L505.306 642.666l-24.656-24.701-51.783-51.783a85.681 85.681 0 0 1-15.967-22.143 77.358 77.358 0 0 1-3.793-8.645 11.18 11.18 0 0 1-0.441-1.104c-0.904-2.559-1.72-5.139-2.403-7.829a36.173 36.173 0 0 0-0.508-1.962 86.873 86.873 0 0 1-1.367-7.521c-0.088-0.771-0.287-1.543-0.375-2.359-0.353-3.198-0.595-6.527-0.595-9.813 0-2.383 0.177-4.72 0.375-7.036 0.176-2.029 0.418-3.97 0.706-5.955 5.977-39.697 38.749-70.573 79.373-73.573 2.117-0.154 4.234-0.309 6.396-0.309 3.793 0 7.454 0.309 11.115 0.75 0.86 0.132 1.698 0.265 2.559 0.441 3.219 0.529 6.396 1.168 9.483 2.029 0.353 0.088 0.683 0.11 1.014 0.265 7.477 2.161 14.534 5.337 20.996 9.24 5.91 3.661 11.401 7.852 16.275 12.682l46.953 46.975 31.295 31.294L920.85 812.482c15.703 15.746 25.429 37.492 25.429 61.464-0.001 47.969-38.883 86.827-86.872 86.827m15.394-102.242l-217.166-217.1a21.685 21.685 0 0 0-15.373-6.352c-11.975 0-21.701 9.748-21.701 21.7 0 5.955 2.427 11.425 6.374 15.395l217.123 217.101c3.948 3.926 9.351 6.353 15.35 6.353 12.019 0 21.745-9.705 21.745-21.681-0.001-6.043-2.449-11.446-6.352-15.416z m-742.782 15.415c-11.998 0-21.745 9.683-21.745 21.681 0 11.975 9.748 21.7 21.745 21.7 11.997 0 21.701-9.726 21.701-21.7 0-11.998-9.704-21.681-21.701-21.681" p-id="6038" fill="#e6e6e6"></path></svg>