<?xml version="1.0" standalone="no"?><!DOCTYPE svg PUBLIC "-//W3C//DTD SVG 1.1//EN" "http://www.w3.org/Graphics/SVG/1.1/DTD/svg11.dtd"><svg t="1511945336395" class="icon" style="" viewBox="0 0 1024 1024" version="1.1" xmlns="http://www.w3.org/2000/svg" p-id="7109" xmlns:xlink="http://www.w3.org/1999/xlink" width="200" height="200"><defs><style type="text/css"></style></defs><path d="M905.984 752.768c0-87.616-62.656-84.672-62.656-84.672s0-76.8 0-98.432c0-21.632-32.256-60.992-58.816-60.992-26.56 0-64 0-64 0l-0.512 65.92 66.432 0L786.432 710.4c0 0 60.736-12.8 60.736 46.272 0 49.216-64.512 39.36-64.512 39.36l-3.456 129.28L298.56 925.312 240.128 925.312 240.128 448.256c0 0-71.872 10.688-71.872-42.816 0-64.192 67.648-50.304 67.648-50.304L235.904 204.352 472.64 202.24 472.64 135.936c0 0-205.056 0-234.624 0S172.48 178.688 172.48 202.24s0 106.944 0 106.944-69.76-3.2-69.76 91.968c0 55.616 17.088 91.968 65.664 91.968 0 0 4.096 412.928 4.096 427.904 0 40.64 24.32 70.592 67.648 70.592 4.736 0 26.432 0 58.496 0 140.288 0 480.512 0 480.512 0 1.024 0 2.944 0 3.456 0 38.912 0 60.736-27.584 60.736-64.96 0-13.76-0.128-85.376-0.128-85.376C886.848 841.344 905.984 803.904 905.984 752.768z" p-id="7110" fill="#ffffff"></path><path d="M724.864 32.32c-121.408 0-219.84 98.432-219.84 219.84 0 55.424 21.184 105.472 55.104 144.192L340.16 635.456l52.672 48.448 222.656-242.048c32.32 18.688 69.376 30.208 109.376 30.208 121.408 0 219.84-98.432 219.84-219.84S846.272 32.32 724.864 32.32zM724.864 398.336c-80.704 0-146.176-65.408-146.176-146.176s65.408-146.176 146.176-146.176c80.704 0 146.112 65.408 146.112 146.176S805.568 398.336 724.864 398.336z" p-id="7111" fill="#ffffff"></path></svg>